HIERARCHY
ROOT Hips
{
	OFFSET -0.179506 -22.333345 2.821913
	CHANNELS 6 Xposition Yposition Zposition Zrotation Yrotation Xrotation 
	JOINT LeftUpLeg
	{
		OFFSET 6.951974 -9.140623 -0.681533
		CHANNELS 3 Zrotation Yrotation Xrotation
		JOINT LeftLeg
		{
			OFFSET 3.427654 -37.519855 -0.449580
			CHANNELS 3 Zrotation Yrotation Xrotation
			JOINT LeftFoot
			{
				OFFSET -1.359570 -39.796059 -4.369333
				CHANNELS 3 Zrotation Yrotation Xrotation
				JOINT LeftToe
				{
					OFFSET 2.635814 -5.579078 11.928840
					CHANNELS 3 Zrotation Yrotation Xrotation
					End Site
					{
						OFFSET 0.000000 0.000000 0.000000
					}
				}
			}
		}
	}
	JOINT RightUpLeg
	{
		OFFSET -6.767048 -9.052170 -0.431982
		CHANNELS 3 Zrotation Yrotation Xrotation
		JOINT RightLeg
		{
			OFFSET -3.829005 -38.256897 -0.885003
			CHANNELS 3 Zrotation Yrotation Xrotation
			JOINT RightFoot
			{
				OFFSET 1.577377 -39.841461 -4.231180
				CHANNELS 3 Zrotation Yrotation Xrotation
				JOINT RightToe
				{
					OFFSET -2.537174 -4.814398 12.334795
					CHANNELS 3 Zrotation Yrotation Xrotation
					End Site
					{
						OFFSET 0.000000 0.000000 0.000000
					}
				}
			}
		}
	}
	JOINT Spine
	{
		OFFSET -0.253288 10.896323 -2.669631
		CHANNELS 3 Zrotation Yrotation Xrotation
		JOINT Spine1
		{
			OFFSET 0.548704 13.518043 0.109247
			CHANNELS 3 Zrotation Yrotation Xrotation
			JOINT Spine2
			{
				OFFSET 0.145701 5.292222 2.542457
				CHANNELS 3 Zrotation Yrotation Xrotation
				JOINT Neck
				{
					OFFSET -0.277840 21.387037 -4.285703
					CHANNELS 3 Zrotation Yrotation Xrotation
					JOINT Head
					{
						OFFSET 0.515184 6.496960 5.134897
						CHANNELS 3 Zrotation Yrotation Xrotation
						End Site
						{
							OFFSET 0.000000 0.000000 0.000000
						}
					}
				}
				JOINT LeftShoulder
				{
					OFFSET 7.884473 12.174932 -3.408961
					CHANNELS 3 Zrotation Yrotation Xrotation
					JOINT LeftArm
					{
						OFFSET 9.097692 3.046888 -0.886815
						CHANNELS 3 Zrotation Yrotation Xrotation
						JOINT LeftForeArm
						{
							OFFSET 25.961220 -1.277207 -2.745643
							CHANNELS 3 Zrotation Yrotation Xrotation
							JOINT LeftHand
							{
								OFFSET 24.923361 0.898606 -0.117091
								CHANNELS 3 Zrotation Yrotation Xrotation
								End Site
								{
									OFFSET 0.000000 0.000000 0.000000
								}
							}
						}
					}
				}
				JOINT RightShoulder
				{
					OFFSET -8.175920 11.883285 -3.861528
					CHANNELS 3 Zrotation Yrotation Xrotation
					JOINT RightArm
					{
						OFFSET -9.601238 3.255117 -0.914307
						CHANNELS 3 Zrotation Yrotation Xrotation
						JOINT RightForeArm
						{
							OFFSET -25.374195 -1.332924 -2.140099
							CHANNELS 3 Zrotation Yrotation Xrotation
							JOINT RightHand
							{
								OFFSET -25.529810 0.777228 -0.555919
								CHANNELS 3 Zrotation Yrotation Xrotation
								End Site
								{
									OFFSET 0.000000 0.000000 0.000000
								}
							}
						}
					}
				}
			}
		}
	}
}
MOTION
Frames: 13
Frame Time: 0.033333
320.143036 294.148010 86.625229 -38.814475 4.021155 89.359980 0.653848 1.090360 27.625218 5.112847 -18.881403 -8.704570 -5.001477 11.372098 -15.727384 nan nan nan 2.972801 2.468414 -28.913948 3.906932 -2.373449 1.817201 6.374694 -7.900850 2.255861 nan nan nan -3.361297 -7.675425 5.488773 7.709749 -3.927352 8.422091 4.171118 -5.042452 -2.579496 3.363312 -0.794455 -3.604633 11.292176 -0.900914 -4.283696 -21.620748 -1.647798 -1.952812 -56.352253 -26.994704 15.226952 20.934145 -38.647478 -32.190470 -7.632177 -20.991994 -7.121352 19.110251 -6.294666 -1.833267 54.400290 -6.140312 5.388513 -9.428588 27.407377 -9.775136 12.971338 11.192642 -9.936143 
319.297028 293.357483 86.418770 -38.568148 4.367600 89.504723 0.876981 0.529434 28.114053 5.192857 -18.779699 -8.369409 -4.909084 11.706533 -15.769832 nan nan nan 2.975442 2.847619 -29.533252 4.196912 -3.195474 3.361978 6.333139 -7.747601 3.717958 nan nan nan -2.902240 -7.871591 5.020782 7.905950 -4.002953 8.892044 3.927028 -4.987098 -2.855480 3.476327 -0.625742 -3.479107 11.110294 -1.253428 -4.606606 -21.632978 -1.173668 -1.966973 -56.987388 -27.364294 15.850685 20.734280 -38.507167 -31.759636 -7.403906 -20.954771 -7.635099 19.041223 -6.647898 -1.873574 54.733361 -6.335435 5.520455 -10.166199 26.522876 -9.998439 11.346832 10.270236 -10.054794 
318.449860 292.523987 86.243271 -38.193055 4.661704 89.578772 1.437984 0.380936 28.511158 4.998134 -18.983555 -7.794272 -5.035513 11.738754 -15.668620 nan nan nan 3.012073 2.878607 -29.959767 4.367738 -4.122055 4.780149 5.599319 -7.742572 5.426834 nan nan nan -2.566244 -8.183865 4.634148 8.118203 -4.052795 9.197195 3.819033 -4.972711 -2.953559 3.602047 -0.404349 -3.340709 10.732744 -1.555218 -4.887702 -21.651596 -1.128178 -1.759529 -57.570581 -27.481099 16.022570 20.872178 -38.426659 -31.575494 -7.579925 -20.908750 -7.521575 18.908748 -6.751140 -1.908960 54.969451 -6.585709 5.178600 -10.625679 25.718410 -10.199956 11.069353 9.512763 -9.892875 
317.596405 291.683533 86.099586 -37.837510 4.914049 89.617776 2.057608 0.373987 28.855190 4.709618 -19.220710 -7.088286 -5.233679 11.735389 -15.392624 nan nan nan 3.086979 2.823939 -30.241246 4.495637 -4.766104 6.049244 4.474045 -7.938910 6.619911 nan nan nan -2.310850 -8.434646 4.258535 8.307246 -4.120460 9.570657 3.755595 -4.910522 -3.082672 3.530836 -0.046323 -3.154098 10.454115 -1.626520 -4.988517 -21.579697 -1.398726 -1.391747 -58.103254 -27.470270 16.113201 21.102229 -38.193547 -31.427426 -8.056723 -20.490848 -7.544221 18.859546 -6.792838 -2.026304 55.105889 -6.913745 4.836962 -11.009646 25.052616 -10.346038 11.450558 8.831565 -9.846287 
316.730530 290.795532 85.969803 -37.346063 5.007620 89.618689 2.469695 0.287641 29.192995 4.499061 -19.498414 -6.292602 -5.647761 11.616314 -15.038347 nan nan nan 2.989325 2.513775 -30.324726 4.709039 -5.466335 6.962224 4.403425 -8.247812 7.259855 nan nan nan -2.161098 -8.702860 3.972970 8.408987 -4.318296 9.690753 3.698583 -4.864988 -3.060981 3.277186 0.233010 -2.724294 10.371238 -1.554680 -5.129968 -21.482631 -1.396152 -1.082089 -58.728258 -27.559852 16.189506 20.884964 -37.895477 -31.256868 -8.799642 -20.386300 -7.310870 18.830674 -6.891329 -1.963719 55.302694 -6.978594 4.351143 -11.410724 24.233884 -10.657918 12.092216 8.363849 -9.412041 
315.859497 289.892181 85.889023 -36.914274 5.047330 89.657610 2.768283 0.244275 29.331453 4.250404 -19.821188 -5.226211 -5.986759 11.592205 -14.573611 nan nan nan 2.840128 2.222324 -30.455961 4.917634 -5.932894 7.972747 4.191653 -8.476122 7.576673 nan nan nan -2.000474 -8.972451 3.669304 8.500783 -4.508559 9.825469 3.645078 -4.856424 -3.150430 3.135381 0.109665 -2.559877 10.078426 -1.571118 -5.240524 -21.557980 -1.274199 -0.857504 -59.149522 -27.406204 16.318503 20.491793 -37.705716 -30.679883 -8.709140 -20.275359 -7.174907 18.838361 -6.894981 -1.814410 55.372940 -7.140050 4.093738 -11.733109 23.555336 -10.823348 11.985847 8.344928 -9.198305 
314.970490 288.983521 85.858536 -36.677260 5.182907 89.720611 2.990493 0.091370 29.426943 4.002680 -20.015237 -4.100705 -6.074601 11.897893 -13.877390 nan nan nan 2.788243 2.146382 -30.528169 5.112890 -6.258452 8.931223 3.479634 -8.668047 8.163217 nan nan nan -1.784789 -9.146894 3.266562 8.645091 -4.573895 10.019291 3.654612 -4.862288 -3.217627 3.072558 -0.026255 -2.859166 9.673886 -1.677397 -5.190041 -21.682148 -1.267900 -0.658857 -59.592563 -27.017735 16.360773 20.225762 -37.575774 -29.910071 -9.245729 -20.031938 -6.908230 18.804972 -6.828309 -1.756564 55.346739 -7.414443 3.789411 -11.962171 23.025169 -10.928497 12.459540 8.283196 -8.789615 
314.052124 288.099243 85.854805 -36.586642 5.354559 89.744683 3.049121 -0.299194 29.483017 3.689344 -19.808395 -2.792518 -6.109740 12.217951 -13.110971 nan nan nan 2.797331 2.280905 -30.393570 5.283373 -6.624889 9.708002 3.246952 -8.708715 9.379837 nan nan nan -1.486612 -9.302523 2.916409 8.764257 -4.635749 10.027396 3.574246 -4.861551 -3.248152 2.944953 0.101949 -2.792336 9.276724 -1.779532 -5.055667 -21.711730 -1.176826 -0.522327 -60.096951 -26.450104 16.446486 19.892447 -37.275211 -29.181824 -9.646013 -20.011930 -6.881815 18.784900 -6.658125 -1.585547 55.490918 -7.509050 3.607863 -12.427131 22.178218 -11.207815 12.820015 8.143605 -8.348066 
313.138885 287.238556 85.879150 -36.536239 5.560437 89.882510 3.233223 -0.598518 29.149623 3.186503 -19.460079 -1.094608 -6.537718 12.312499 -12.367609 nan nan nan 2.803458 2.410688 -30.435518 5.493045 -7.144056 10.759698 3.442856 -8.547541 10.772040 nan nan nan -1.118681 -9.470454 2.562990 8.923658 -4.735766 9.937875 3.448006 -4.828364 -3.487100 2.711703 0.281300 -2.062448 8.917697 -1.853146 -5.113790 -21.674662 -0.864058 -0.272730 -60.687934 -25.941503 16.538128 19.351260 -36.824905 -28.404968 -10.269641 -20.037001 -6.991281 18.633019 -6.506868 -1.107669 55.812385 -7.377478 3.498810 -13.024229 21.105642 -11.654267 13.179082 8.298651 -8.719174 
312.277283 286.287109 85.827240 -36.062907 5.909392 90.198385 3.920616 -0.639179 28.263877 2.607294 -19.168197 1.021797 -7.699831 11.689552 -11.096816 nan nan nan 3.013986 2.067983 -30.563237 5.490003 -7.830227 11.865494 3.768864 -8.239103 11.502091 nan nan nan -0.392956 -9.706095 2.020866 9.082104 -4.918629 9.609515 3.302711 -4.877184 -3.380778 2.563875 0.487625 -1.668982 8.398571 -2.125398 -5.126722 -21.547384 -0.528037 -0.106878 -61.849858 -25.703278 16.629230 18.845559 -35.948835 -27.917189 -12.402285 -19.763062 -6.270563 18.091410 -6.661142 -0.753934 56.325123 -7.002781 2.869489 -13.504745 20.103820 -12.208333 14.725481 8.566465 -9.030267 
311.359161 285.395477 85.820641 -35.914712 5.924936 90.351771 4.367026 -0.342982 27.408059 1.814070 -19.184601 3.399789 -8.217644 11.519310 -9.802424 nan nan nan 2.919416 2.213972 -30.715916 5.384485 -8.353551 13.348417 3.441033 -8.127892 11.751727 nan nan nan -0.481019 -9.779894 1.738600 9.272451 -4.634069 9.214795 3.454192 -4.876930 -3.102967 2.543870 0.360377 -1.602864 8.009818 -2.357960 -5.021565 -21.317310 -0.540772 0.175723 -62.847158 -25.388257 17.012949 18.452982 -35.198870 -26.951980 -13.213588 -19.357664 -6.156757 17.993931 -6.812178 -0.654733 56.363176 -7.160695 2.413193 -13.556421 19.889906 -12.666855 15.354516 8.627705 -9.323345 
310.476654 284.465179 85.874741 -35.611074 5.850213 90.213049 4.296160 -0.688267 26.830106 1.066052 -19.550380 6.018751 -8.549502 11.667225 -8.743543 nan nan nan 2.579700 2.545394 -30.439760 5.406311 -9.107398 14.518979 3.035905 -8.346065 11.917834 nan nan nan -0.524697 -9.863423 1.960403 9.384852 -4.590967 8.743481 3.513473 -4.875574 -3.043626 2.274617 0.054329 -1.329135 7.872290 -2.319996 -5.122736 -21.349074 -0.397872 0.583351 -63.190831 -25.060847 17.188720 17.411717 -34.801916 -25.668032 -13.021051 -19.191274 -6.294045 17.985343 -6.800849 -0.479420 56.368790 -7.414302 2.152187 -13.601898 19.871405 -12.737433 15.174001 8.558645 -9.379991 
309.573761 283.565063 85.969742 -35.617958 5.842661 90.012510 4.175140 -1.166440 26.359251 0.166648 -19.316911 8.382945 -8.640114 11.763716 -7.430613 nan nan nan 2.394048 2.903271 -30.159545 5.495548 -9.521553 15.791933 2.546079 -8.323160 12.082329 nan nan nan -0.418054 -9.904634 2.133844 9.365776 -4.563678 8.457467 3.376676 -4.679943 -3.084145 2.265262 -0.021437 -0.986114 7.698100 -2.444443 -5.083155 -21.032440 0.130222 0.832165 -63.748826 -24.843489 17.318544 16.079997 -34.321655 -24.219977 -13.890421 -19.019065 -6.092609 17.880052 -7.105273 -0.518575 56.724383 -7.296332 2.104919 -13.866555 19.342293 -12.836332 15.687376 8.329755 -9.338045 
